<svg xmlns="http://www.w3.org/2000/svg" width="36" height="36" viewBox="0 0 36 36"><defs><clipPath id="xvina"><path d="M1.97 21.5h28.51v14.47H1.97z"/></clipPath><clipPath id="xvinb"><path d="M18.33 14.59h17.605v16.99H18.33z"/></clipPath><clipPath id="xvinc"><path d="M0 9.94h7.956v16.098H0z"/></clipPath></defs><g><g><g><path fill="#e13f2c" d="M1.97 9.935c.502-1.097 1.165-2.099 1.932-3.028C7.692 2.313 12.606-.034 18.636 0c4.45.026 8.362 1.522 11.7 4.43.203.179.25.276.025.494-1.577 1.524-3.138 3.064-4.699 4.605-.145.143-.24.205-.425.037-4.03-3.652-10.876-3.47-14.974 1.053a11.167 11.167 0 0 0-2.168 3.52c-.04.105-.092.207-.138.311-1.199-.91-2.391-1.828-3.597-2.729-.797-.595-1.557-1.238-2.39-1.786"/></g><g><g/><g clip-path="url(#xvina)"><path fill="#2ca14b" d="M7.953 21.5c.49 1.264 1.111 2.457 2.012 3.49 2.446 2.809 5.538 4.142 9.315 3.907 1.945-.121 3.742-.683 5.388-1.709 1.01.773 2.013 1.556 3.034 2.316.928.69 1.817 1.43 2.779 2.076-1.074 1.047-2.317 1.861-3.667 2.512-6.524 3.144-15.448 2.574-21.539-3.505-1.346-1.343-2.472-2.845-3.305-4.55l1.384-1.05 4.6-3.487"/></g></g><g><g/><g clip-path="url(#xvinb)"><path fill="#3b7ceb" d="M30.48 31.58c-.96-.647-1.85-1.387-2.778-2.077-1.02-.76-2.023-1.543-3.034-2.316.84-.614 1.607-1.297 2.212-2.146a8.708 8.708 0 0 0 1.37-3.038c.076-.315-.013-.388-.334-.387-3.058.01-6.116.002-9.175.013-.316.001-.413-.073-.411-.396.015-2.092.013-4.183.002-6.275-.002-.282.075-.368.371-.368 5.507.009 11.014.008 16.522.002.246 0 .376.042.42.317.57 3.599.328 7.125-.978 10.553a15.774 15.774 0 0 1-3.943 5.924c-.075.071-.162.13-.243.193"/></g></g><g><g/><g clip-path="url(#xvinc)"><path fill="#f0b401" d="M7.956 21.5l-4.6 3.487-1.384 1.051C1.34 24.904.9 23.696.582 22.448c-1.077-4.234-.656-8.328 1.236-12.277.04-.081.098-.154.147-.231.834.547 1.594 1.19 2.39 1.786 1.206.9 2.399 1.818 3.597 2.729-.21.787-.429 1.571-.513 2.387-.155 1.52.005 3.003.471 4.458.021.065.03.133.046.2"/></g></g></g></g></svg>