<svg xmlns="http://www.w3.org/2000/svg" width="22" height="24" viewBox="0 0 22 24"><defs><clipPath id="ztyva"><path d="M0 5.63h21.214V24H0z"/></clipPath></defs><g><g><g><g/><g clip-path="url(#ztyva)"><path d="M9.707 24c-.977-.24-1.992-.382-2.924-.74-6.908-2.65-9.011-11.383-4.1-16.917a6.24 6.24 0 0 1 .404-.425c.397-.368.934-.374 1.29-.024.345.337.36.843.029 1.252-.346.426-.735.824-1.047 1.274-3.71 5.348-.42 12.798 6.03 13.674 5.549.753 10.344-3.67 10.006-9.254-.127-2.094-.932-3.916-2.354-5.466-.186-.202-.367-.449-.438-.706-.11-.4.085-.735.455-.924.413-.213.793-.119 1.114.207 1.245 1.265 2.135 2.746 2.618 4.452 1.76 6.208-2.13 12.365-8.491 13.46l-.78.137z"/></g></g><g><path d="M9.7 5.865V1.178c.001-.75.343-1.188.918-1.178.558.01.896.44.896 1.151.002 3.143.002 6.285 0 9.427 0 .712-.339 1.143-.895 1.152-.579.01-.918-.424-.919-1.178V5.865"/></g></g></g></svg>