<?xml version="1.0" encoding="UTF-8"?>
<svg width="24px" height="28px" viewBox="0 0 24 28" version="1.1" xmlns="http://www.w3.org/2000/svg" xmlns:xlink="http://www.w3.org/1999/xlink">
    <!-- Generator: Sketch 53.1 (72631) - https://sketchapp.com -->
    <title>Group 14</title>
    <desc>Created with Sketch.</desc>
    <g id="Page-1" stroke="none" stroke-width="1" fill="none" fill-rule="evenodd">
        <g id="MAIN_PAGE-Copy-4" transform="translate(-1324.000000, -602.000000)" stroke="#FFD76B" stroke-width="1.26">
            <g id="Group-3" transform="translate(1325.000000, 555.000000)">
                <g id="Group-4" transform="translate(0.000000, 51.000000)">
                    <g id="Group-9" transform="translate(0.000000, -0.000000)">
                        <g id="Group-14" transform="translate(0.000000, -0.000000)">
                            <path d="M21.7226257,-1.33226763e-14 C21.111969,1.88623744 19.2654798,2.61257393 16.1831578,2.17900947 C11.5596749,1.52866277 9.45049246,7.83250111 12.2795212,10.5857846 C15.1085499,13.3390681 20.1154564,11.2374687 21.0553606,7.50568191 C21.6819635,5.01782406 21.9043851,2.51593009 21.7226257,-1.33226763e-14 Z" id="Path-8-Copy"></path>
                            <path d="M9.91097486,11.0636141 L9.70588235,10.8611111 L9.91097486,11.0636141 L-2.56683563e-12,20.9588916 L9.91097486,11.0636141 L11.6470588,12.7777778 L10.821919,11.9630564 L9.91097486,11.0636141 L10.1137991,10.8611111 L9.91097486,11.0636141 Z M1.59908015,22.9342839 L11.6470588,12.9022196 L1.59908015,22.9342839 L-4.38582504e-12,21.1167084 L1.59908015,22.9342839 Z M1.59908015,22.9342839 L1.53325977,23 L1.59908015,22.9342839 L1.65689639,23 L1.59908015,22.9342839 Z" id="Combined-Shape-Copy-4"></path>
                        </g>
                    </g>
                </g>
            </g>
        </g>
    </g>
</svg>