<?xml version="1.0" encoding="iso-8859-1"?>
<!-- Generator: Adobe Illustrator 19.0.0, SVG Export Plug-In . SVG Version: 6.00 Build 0)  -->
<svg version="1.1" id="Capa_1" xmlns="http://www.w3.org/2000/svg" xmlns:xlink="http://www.w3.org/1999/xlink" x="0px" y="0px"
	 viewBox="0 0 512 512" style="enable-background:new 0 0 512 512;" xml:space="preserve">
<g>
	<g>
		<path d="M487.659,148.912L290.923,21.445c-20.672-14.144-49.429-13.995-69.653-0.149L24.341,148.891
			C9.088,158.768,0,175.493,0,193.669v254.123c0,29.397,23.936,53.333,53.333,53.333h405.333c29.397,0,53.333-23.936,53.333-53.333
			V193.669C512,175.493,502.912,158.768,487.659,148.912z M188.16,349.339l-128,106.667c-1.984,1.643-4.416,2.453-6.827,2.453
			c-3.072,0-6.101-1.301-8.213-3.84c-3.776-4.523-3.157-11.264,1.365-15.04l128-106.667c4.544-3.776,11.264-3.157,15.04,1.365
			C193.301,338.843,192.683,345.563,188.16,349.339z M256,330.821c-11.733,0-23.488-3.499-33.728-10.517L47.317,200.603
			c-4.864-3.328-6.101-9.963-2.795-14.827c3.307-4.864,9.941-6.101,14.827-2.773l174.955,119.701
			c13.163,9.003,30.187,9.003,43.371,0l174.955-119.701c4.885-3.307,11.499-2.069,14.827,2.773
			c3.328,4.864,2.091,11.499-2.773,14.827L289.728,320.304C279.488,327.323,267.733,330.821,256,330.821z M466.859,454.64
			c-2.112,2.539-5.141,3.84-8.213,3.84c-2.411,0-4.821-0.811-6.827-2.475l-128-106.667c-4.523-3.776-5.141-10.496-1.365-15.04
			c3.755-4.523,10.475-5.141,15.04-1.365l128,106.667C470.016,443.376,470.635,450.096,466.859,454.64z"/>
	</g>
</g>
<g>
</g>
<g>
</g>
<g>
</g>
<g>
</g>
<g>
</g>
<g>
</g>
<g>
</g>
<g>
</g>
<g>
</g>
<g>
</g>
<g>
</g>
<g>
</g>
<g>
</g>
<g>
</g>
<g>
</g>
</svg>
