<svg xmlns="http://www.w3.org/2000/svg" width="150" height="27" viewBox="0 0 150 27"><defs><clipPath id="iw4ia"><path d="M83.2.06h16.434v26.823H83.2z"/></clipPath><clipPath id="iw4ib"><path d="M62.09 8.11h17.525v18.864H62.09z"/></clipPath><clipPath id="iw4ic"><path d="M148.11.06h1.851v26.443h-1.851z"/></clipPath></defs><g><g><g><path fill="#3109f0" d="M146.28 14.897c.389 0 .433.04.437.44.005.349.01.698.001 1.047-.007.319-.098.396-.41.382-.687-.03-1.373.05-2.06-.005-.229-.018-.19.163-.192.3-.01.564.03 1.135-.034 1.692a9.705 9.705 0 0 1-.81 2.935 8.964 8.964 0 0 1-3.36 3.884c-.674.435-1.418.733-2.168 1.027-.978.384-1.968.334-2.969.34-.494.003-.99-.01-1.484.003-.531.012-1.016-.167-1.519-.305a7.62 7.62 0 0 1-1.423-.562 8.094 8.094 0 0 1-1.768-1.21c-.846-.76-1.57-1.62-2.11-2.626a8.557 8.557 0 0 1-.776-1.983c-.264-1.059-.433-2.123-.387-3.217.01-.203-.092-.258-.282-.256-.646.01-1.293.004-1.94.004v.005h-1.878c-.428 0-.553-.106-.574-.529-.048-.979-.385-1.85-.852-2.7a7.076 7.076 0 0 0-2.69-2.75 6.187 6.187 0 0 0-2.261-.792c-.662-.095-1.314-.196-1.986-.134-2.19.2-3.983 1.149-5.32 2.93-.442.589-.751 1.256-1.018 1.958-.525 1.38-.457 2.796-.357 4.21.031.446.197.906.347 1.352.261.774.64 1.469 1.133 2.102.71.912 1.572 1.657 2.624 2.105 1.38.587 2.813.884 4.33.584.513-.102 1.037-.172 1.523-.355a6.503 6.503 0 0 0 1.636-.887c.817-.616 1.557-1.321 2.051-2.227.263-.481.457-.75 1.04-.469.275.133.586.252.914.29.191.023.238.313.09.577-.7 1.25-1.58 2.335-2.746 3.175-.567.41-1.162.762-1.792 1.046a7.548 7.548 0 0 1-1.506.516c-1.447.31-2.91.09-4.365.126-.279.007-.58-.09-.837-.213-.293-.14-.607-.203-.905-.322-1.175-.468-2.163-1.198-3.037-2.102-.602-.623-1.13-1.31-1.527-2.085a9.23 9.23 0 0 1-.766-2.014 12.268 12.268 0 0 1-.363-3.157c.004-.213-.109-.249-.29-.245-.606.011-1.212.003-1.818.017-.281.006-.412-.105-.406-.396.008-.39.01-.781.001-1.171-.005-.267.112-.36.368-.356.717.012 1.435-.001 2.152.011.253.005.36-.093.394-.347.063-.48.29-.91.492-1.337.513-1.092 1.248-2.021 2.148-2.814a9.129 9.129 0 0 1 2.667-1.64c1.712-.686 3.489-.78 5.268-.538 2.212.301 4.052 1.375 5.532 3.096.666.774 1.151 1.65 1.55 2.578.107.252.23.523.255.811.013.147.09.188.221.188.95-.003 1.899-.003 2.848 0 .18 0 .277-.083.32-.26.23-.975.682-1.846 1.244-2.66a8.943 8.943 0 0 1 3.282-2.877c.702-.364 1.459-.598 2.24-.78 1.227-.284 2.453-.244 3.674-.132.914.083 1.795.375 2.646.77 1.385.645 2.468 1.644 3.411 2.82.439.548.757 1.177 1.034 1.828.16.376.28.763.403 1.15.054.169.167.15.286.15.808.002 1.616.004 2.424.004m-4.43 4.046c.069-.482.013-.983.013-1.476a6.87 6.87 0 0 0-.872-3.973c-.46-.816-1.041-1.53-1.78-2.107-.616-.481-1.267-.878-2.01-1.141-.448-.16-.909-.332-1.36-.362-1.323-.088-2.65-.154-3.932.378-.56.233-1.103.482-1.586.841-1.343.999-2.33 2.26-2.769 3.931-.198.756-.363 1.516-.373 2.292a8.745 8.745 0 0 0 .598 3.263c.448 1.167 1.183 2.111 2.122 2.897a6.677 6.677 0 0 0 2.055 1.174c.41.147.835.312 1.24.349 1.371.123 2.743.178 4.079-.36.798-.32 1.51-.75 2.157-1.3.873-.744 1.506-1.675 1.955-2.732.227-.533.38-1.103.462-1.674"/></g><g><g/><g clip-path="url(#iw4ia)"><path fill="#3109f0" d="M99.427 13.605c-.156-.584-.325-1.161-.575-1.698-.385-.83-.972-1.528-1.634-2.15a5.412 5.412 0 0 0-2.026-1.23c-.622-.206-1.24-.416-1.901-.416-1.096 0-2.193-.1-3.28.191-.387.104-.78.205-1.152.342a6.503 6.503 0 0 0-1.555.854c-.74.536-1.334 1.21-1.847 1.965-.076.112-.09.349-.227.319-.146-.033-.062-.25-.063-.382-.02-3.688-.037-7.375-.046-11.063 0-.22-.07-.282-.277-.276-.424.013-.849.017-1.272 0-.238-.01-.306.068-.305.31 0 1.417-.023 2.834-.025 4.251-.004 2.917-.001 5.835-.001 8.752H83.2v12.08c0 .338.004.677 0 1.016-.002.278.114.419.4.41.324-.008.647.002.97.003.58 0 .59-.027.607-.602.106-3.516-.243-7.042.22-10.55.077-.577.283-1.122.501-1.656.252-.617.634-1.158 1.043-1.677.676-.86 1.565-1.425 2.547-1.836.432-.18.905-.245 1.368-.338 1.38-.28 2.688-.125 3.956.497 1.208.594 1.912 1.635 2.372 2.839.358.935.464 1.946.463 2.959-.003 3.204 0 6.41.002 9.614 0 .123.003.247.009.37.008.185.101.279.288.279.465-.002.93.002 1.393 0 .167 0 .267-.08.273-.259.004-.113.013-.226.013-.338.002-3.092.018-6.184-.004-9.276-.007-1.1.099-2.204-.194-3.304"/></g></g><g><path fill="#3109f0" d="M58.794 19.169c-.433-.553-.979-.968-1.588-1.29-.379-.2-.78-.365-1.184-.503-.37-.125-.75-.22-1.127-.322a21.224 21.224 0 0 0-1.557-.34c-.473-.09-.942-.21-1.412-.308-.352-.073-.723-.095-1.06-.218-.547-.198-1.112-.33-1.645-.58-.68-.319-1.244-.693-1.497-1.477a3.166 3.166 0 0 1 .134-2.356c.411-.899 1.191-1.417 2.104-1.718.638-.21 1.297-.272 1.969-.278 1.32-.012 2.58.162 3.695.968.783.566 1.4 1.24 1.631 2.224.12.511.206.555.71.504.363-.037.678-.254 1.054-.256.26-.002.379-.206.276-.448-.185-.435-.324-.885-.543-1.312-.425-.825-1.046-1.444-1.767-1.974a5.955 5.955 0 0 0-1.871-.95c-.698-.203-1.39-.407-2.123-.394-.893.015-1.781-.026-2.673.204a10.63 10.63 0 0 0-1.747.63c-.702.318-1.256.832-1.75 1.424-.655.785-.996 1.697-1.086 2.707a4.202 4.202 0 0 0 .179 1.577c.14.471.357.883.635 1.274.406.57.957.964 1.558 1.278.398.209.824.384 1.257.497.415.108.84.2 1.253.306.837.216 1.689.359 2.526.573.648.166 1.308.296 1.961.451a4.71 4.71 0 0 1 1.69.75c.499.358.802.859.862 1.481.032.326.017.657.005.985a2.519 2.519 0 0 1-.57 1.51c-.761.958-1.846 1.322-2.96 1.457-1.336.163-2.685.15-3.988-.37-.498-.198-.99-.397-1.42-.707-.831-.6-1.487-1.34-1.646-2.425-.025-.17-.105-.332-.165-.495-.058-.154-.144-.177-.308-.117-.377.137-.762.253-1.15.35-.376.093-.473.17-.407.57.098.587.299 1.14.596 1.66.73 1.27 1.806 2.105 3.133 2.648.244.1.505.145.738.256.446.212.914.3 1.396.314.575.017 1.15.004 1.958.004.866-.04 1.966.105 3.044-.34.78-.322 1.533-.665 2.164-1.22.932-.822 1.501-1.86 1.534-3.14.016-.649.076-1.298-.194-1.939-.171-.405-.356-.784-.624-1.125"/></g><g><g/><g clip-path="url(#iw4ib)"><path fill="#3109f0" d="M79.31 21.267c-.43-.071-.817-.28-1.245-.354-.21-.036-.323-.025-.405.217-.198.588-.455 1.151-.846 1.642-.5.63-1.127 1.078-1.827 1.462-.736.404-1.518.7-2.318.791-1.317.151-2.643.153-3.927-.37a8.902 8.902 0 0 1-1.981-1.12 6.16 6.16 0 0 1-1.77-2.066c-.367-.69-.66-1.418-.728-2.217a2.554 2.554 0 0 0-.074-.487c-.318-1.114-.041-2.209.155-3.288.125-.68.423-1.332.802-1.932a8.574 8.574 0 0 1 2.182-2.353c.42-.31.882-.546 1.38-.727.454-.165.908-.352 1.38-.383 1.338-.09 2.67-.138 3.959.407.427.18.852.364 1.219.632 1.034.754 1.817 1.719 2.227 2.969.057.174.15.42.382.37.459-.098.912-.235 1.356-.39.168-.058.385-.18.263-.432-.255-.528-.439-1.086-.761-1.588-.39-.605-.798-1.184-1.347-1.643-.824-.69-1.713-1.259-2.714-1.673-.651-.27-1.326-.492-1.993-.55-1.43-.128-2.87-.135-4.274.354a9.844 9.844 0 0 0-2.386 1.192 8.925 8.925 0 0 0-1.87 1.733c-.737.911-1.327 1.913-1.653 3.063-.2.71-.406 1.413-.4 2.16.004.462.01.925-.003 1.387-.036 1.21.278 2.35.728 3.447.365.89.894 1.687 1.53 2.407.96 1.087 2.083 1.93 3.425 2.475.235.095.485.134.71.244.387.188.791.29 1.218.293.515.003 1.03 0 1.545 0v.005c.061 0 .122-.005.182 0a7.28 7.28 0 0 0 3.725-.647c.655-.3 1.286-.652 1.883-1.078a6.913 6.913 0 0 0 2.526-3.315c.117-.316.025-.59-.255-.637"/></g></g><g><g/><g clip-path="url(#iw4ic)"><path fill="#3109f0" d="M149.768.06c-.343.01-.687.005-1.03.006-.638.002-.638.002-.624.627v.092c-.002 8.044-.004 16.087-.004 24.13 0 .422.013.843.015 1.264.002.228.091.333.332.324.413-.017.828-.015 1.242-.004.18.005.266-.05.254-.24-.006-.093.002-.185.002-.278V13.253h.002V.433c0-.062-.007-.125.001-.185.019-.153-.05-.192-.19-.188"/></g></g><g><path fill="#33fca9" d="M23.564 19.13c-.417-.203-.897-.135-1.307-.359-.14-.076-.273-.007-.386.142-.183.242-.27.529-.378.796-.256.635-.644 1.186-1.05 1.71a8.055 8.055 0 0 1-1.506 1.5c-.523.396-1.047.775-1.65 1.045-.393.176-.795.32-1.19.483a4.32 4.32 0 0 1-1.273.33c-1.583.125-3.17.216-4.752-.14a10.076 10.076 0 0 1-2.233-.78 9.423 9.423 0 0 1-2.336-1.654c-.813-.773-1.526-1.629-2.077-2.613-.251-.45-.495-.916-.652-1.405-.123-.381-.246-.77-.342-1.165-.171-.708-.3-1.423-.348-2.141-.103-1.515.128-2.99.603-4.434.25-.761.592-1.47 1.007-2.142.633-1.023 1.447-1.89 2.365-2.65a8.883 8.883 0 0 1 1.959-1.24c.403-.185.821-.32 1.226-.49a4.943 4.943 0 0 1 1.338-.335c.897-.106 1.804-.187 2.717-.098.561.055 1.113.146 1.668.231.658.102 1.261.346 1.862.574.679.257 1.33.615 1.924 1.058a8.444 8.444 0 0 1 2.086 2.238c.346.54.653 1.092.886 1.692.156.403.393.454.776.267a5.011 5.011 0 0 1 1.013-.37c.272-.065.386-.266.26-.523-.411-.848-.755-1.728-1.312-2.503-.796-1.107-1.765-2.014-2.877-2.772a12.11 12.11 0 0 0-1.788-.992 9.403 9.403 0 0 0-1.553-.557c-.645-.168-1.304-.3-1.981-.337-.583-.032-1.17-.108-1.75-.08-1.022.05-2.044.082-3.053.35-.583.155-1.154.342-1.71.556-.529.205-1.033.484-1.527.781A12.724 12.724 0 0 0 1.53 8.095c-.434.823-.748 1.703-1.014 2.608-.25.85-.392 1.716-.47 2.577a11.19 11.19 0 0 0 .27 3.652c.226.932.46 1.85.865 2.725.34.732.728 1.424 1.2 2.075.57.787 1.227 1.489 1.956 2.123a13.022 13.022 0 0 0 2.99 1.983c.453.213.922.388 1.398.548.327.11.67.14.988.25.577.2 1.173.246 1.768.295.421.034.847.006 1.272.006.792-.004 1.589.048 2.37-.135.4-.094.81-.175 1.197-.297a12.94 12.94 0 0 0 1.543-.576c.64-.294 1.275-.604 1.834-1.025.85-.638 1.644-1.349 2.311-2.195.327-.415.644-.838.913-1.293.33-.56.583-1.16.86-1.746.126-.265.044-.414-.217-.54"/></g><g><path fill="#33fca9" d="M42.264 24.823l-11.085-.016c-1.413-.002-2.827-.006-4.24-.007-.371 0-.411.044-.409.428.002.298.007.595.004.893-.003.444.026.478.454.478h7.631v-.044h7.663c.417 0 .435-.02.436-.458l.001-.801c0-.456-.017-.473-.455-.473"/></g></g></g></svg>