<?xml version="1.0" encoding="UTF-8"?>
<svg width="36px" height="20px" viewBox="0 0 36 20" version="1.1" xmlns="http://www.w3.org/2000/svg" xmlns:xlink="http://www.w3.org/1999/xlink">
    <!-- Generator: Sketch 53.1 (72631) - https://sketchapp.com -->
    <title>Game</title>
    <desc>Created with Sketch.</desc>
    <g id="Page-1" stroke="none" stroke-width="1" fill="none" fill-rule="evenodd">
        <g id="24.05-zaczete-copy" transform="translate(-114.000000, -135.000000)" fill="#000000" fill-rule="nonzero">
            <g id="Group" transform="translate(36.000000, 118.000000)">
                <path d="M87.8823529,24.9310345 L89.3113875,24.9310345 C89.8866217,24.9310345 90.3529412,25.390205 90.3529412,25.9655172 C90.3529412,26.5368463 89.889792,27 89.3113875,27 L87.8823529,27 L87.8823529,28.3513209 C87.8823529,28.9381081 87.4123784,29.4137931 86.8235294,29.4137931 C86.2387573,29.4137931 85.7647059,28.9397652 85.7647059,28.3513209 L85.7647059,27 L84.3356714,27 C83.7604371,27 83.2941176,26.5408295 83.2941176,25.9655172 C83.2941176,25.3941882 83.7572668,24.9310345 84.3356714,24.9310345 L85.7647059,24.9310345 L85.7647059,23.5797136 C85.7647059,22.9929264 86.2346804,22.5172414 86.8235294,22.5172414 C87.4083015,22.5172414 87.8823529,22.9912693 87.8823529,23.5797136 L87.8823529,24.9310345 Z M96,21.1130977 L95.9999999,19.8631732 C96.1328073,19.8631732 96.4552443,19.8241822 96.9155622,19.6978373 C97.7287229,19.4746465 98.5839958,19.0676223 99.4382695,18.425433 C102.60851,16.0422454 107.509572,16.6225348 110.444812,20.3537945 C112.958198,23.5487968 114,27.8308671 114,32.0648306 C114,35.9573784 110.838717,38.0668133 106.476206,36.4546229 C105.155576,35.9665766 104.358673,35.3974596 103.080077,34.2182895 C102.933151,34.0826118 102.858424,34.0136452 102.789356,33.9502669 C100.930151,32.2441992 99.5417809,31.5388682 96.0000001,31.3873217 L96.0000001,28.8874731 C100.189608,29.0667389 102.265346,30.031819 104.554429,32.1323573 C104.626623,32.1986043 104.704566,32.2705385 104.849818,32.4046746 C105.901472,33.3745502 106.462406,33.7751472 107.389912,34.1179121 C110.072386,35.1092353 111.428571,34.2042909 111.428571,32.0648306 C111.428571,28.3288664 110.509463,24.5510973 108.402234,21.8724004 C106.339092,19.2497451 103.061597,18.8616873 101.011244,20.4030138 C99.8880788,21.2473391 98.7353308,21.7959316 97.6142468,22.1036391 C96.9140178,22.2958331 96.3583993,22.3630218 96.0000001,22.3630218 L96,21.1130977 L95.9999999,22.3630218 C95.6416007,22.3630218 95.0859822,22.2958331 94.3857532,22.1036391 C93.2646692,21.7959316 92.1119212,21.2473391 90.9887556,20.4030138 C88.938403,18.8616873 85.6609084,19.2497451 83.5977659,21.8724004 C81.4905374,24.5510973 80.5714286,28.3288664 80.5714286,32.0648306 C80.5714286,34.2042909 81.9276144,35.1092353 84.6100881,34.1179121 C85.5375935,33.7751472 86.0985278,33.3745502 87.1501815,32.4046746 C87.2954339,32.2705385 87.3733772,32.1986043 87.4455706,32.1323573 C89.7346545,30.031819 91.8103919,29.0667389 96,28.8874731 L96,31.3873217 C92.4582192,31.5388682 91.0698491,32.2441992 89.2106436,33.9502669 C89.1415764,34.0136452 89.0668486,34.0826118 88.9199231,34.2182895 C87.6413275,35.3974596 86.8444238,35.9665766 85.5237937,36.4546229 C81.1612831,38.0668133 78,35.9573784 78,32.0648306 C78,27.8308671 79.0418023,23.5487968 81.5551885,20.3537945 C84.4904278,16.6225348 89.3914902,16.0422454 92.5617305,18.425433 C93.4160042,19.0676223 94.2712771,19.4746465 95.0844378,19.6978373 C95.5447557,19.8241822 95.8671927,19.8631732 96.0000001,19.8631732 L96,21.1130977 Z M104.117647,24.5862069 C103.337951,24.5862069 102.705882,23.9686686 102.705882,23.2068966 C102.705882,22.4451245 103.337951,21.8275862 104.117647,21.8275862 C104.897343,21.8275862 105.529412,22.4451245 105.529412,23.2068966 C105.529412,23.9686686 104.897343,24.5862069 104.117647,24.5862069 Z M106.941176,28.0344828 C106.16148,28.0344828 105.529412,27.4169445 105.529412,26.6551724 C105.529412,25.8934003 106.16148,25.2758621 106.941176,25.2758621 C107.720873,25.2758621 108.352941,25.8934003 108.352941,26.6551724 C108.352941,27.4169445 107.720873,28.0344828 106.941176,28.0344828 Z" id="Game"></path>
            </g>
        </g>
    </g>
</svg>