<?xml version="1.0" encoding="UTF-8"?>
<svg width="32px" height="32px" viewBox="0 0 32 32" version="1.1" xmlns="http://www.w3.org/2000/svg" xmlns:xlink="http://www.w3.org/1999/xlink">
    <!-- Generator: Sketch 53.1 (72631) - https://sketchapp.com -->
    <title>Fill 1@2x</title>
    <desc>Created with Sketch.</desc>
    <g id="Page-1" stroke="none" stroke-width="1" fill="none" fill-rule="evenodd">
        <g id="24.05-zaczete-copy" transform="translate(-183.000000, -129.000000)" fill="#000000">
            <g id="Group-3" transform="translate(183.000000, 129.000000)">
                <path d="M14.4468571,21.6796018 L14.4468571,24.9751751 L17.5528571,24.9751751 L17.5528571,21.6790329 C16.5104286,21.9239396 15.4868571,21.9212373 14.4468571,21.6796018 L14.4468571,21.6796018 Z M8.82271429,16.892544 C6.502,12.9144462 5.54614286,8.633984 5.13814286,4.20632178 L1.92071429,4.20632178 C1.92071429,4.34712178 1.916,4.46345956 1.92142857,4.57937067 C1.98614286,5.95707733 2.214,7.31017956 2.57871429,8.63825067 C3.29057143,11.2296818 4.44842857,13.5737884 6.46414286,15.4262329 C7.13157143,16.0396373 7.88042857,16.5308729 8.82271429,16.892544 L8.82271429,16.892544 Z M23.1848571,16.883584 C23.362,16.8138951 23.4698571,16.7776284 23.5727143,16.7302684 C25.1452857,16.0062151 26.3182857,14.8313173 27.2722857,13.4270151 C28.7535714,11.246464 29.5515714,8.80891733 29.9192857,6.22146844 C30.0134286,5.55956622 30.0532857,4.889984 30.1204286,4.20034844 L26.8621429,4.20034844 C26.4542857,8.64593067 25.4938571,12.9216996 23.1848571,16.883584 L23.1848571,16.883584 Z M9.429,29.9833884 L22.5685714,29.9833884 C22.5685714,29.3487929 22.5745714,28.7359573 22.563,28.1235484 C22.5611429,28.0117618 22.4988571,27.8964196 22.4467143,27.7916018 C22.1285714,27.1521707 21.606,26.8705707 20.892,26.8725618 C17.9782857,26.8802418 15.0644286,26.875264 12.1505714,26.8759751 C11.7105714,26.8761173 11.2698571,26.8654507 10.8308571,26.8883484 C10.1504286,26.9240462 9.49628571,27.4905173 9.43985714,28.1528462 C9.389,28.7503218 9.429,29.3554773 9.429,29.9833884 L9.429,29.9833884 Z M6.92314286,1.89023289 C6.92314286,2.03444622 6.91371429,2.16159289 6.92457143,2.28703289 C7.04385714,3.66644622 7.11814286,5.05169067 7.298,6.42328178 C7.68185714,9.35234844 8.48,12.1689173 9.81757143,14.816384 C10.5548571,16.275584 11.4582857,17.6242773 12.7308571,18.6831218 C14.2264286,19.9272818 15.887,20.4064284 17.766,19.6260551 C18.7168571,19.2309618 19.4884286,18.5812907 20.1671429,17.8209707 C21.7124286,16.0892729 22.6622857,14.0308907 23.4215714,11.8742329 C24.3282857,9.29929956 24.7662857,6.62907733 24.9934286,3.92017067 C25.0494286,3.25243733 25.064,2.58114844 25.0987143,1.89023289 L6.92314286,1.89023289 Z M19.491,24.9979307 C19.929,24.9979307 20.3772857,25.0007751 20.8254286,24.9973618 C21.9578571,24.9888284 22.9214286,25.3600284 23.6642857,26.2359751 C24.218,26.8890596 24.4682857,27.6492373 24.4732857,28.4958862 C24.476,28.9805796 24.4737143,29.4652729 24.4737143,29.9637618 C24.6181429,30.0021618 24.7438571,30.0264818 24.8631429,30.0687218 C25.2378571,30.2011307 25.4995714,30.5933796 25.4778571,30.9778062 C25.4552857,31.3767396 25.173,31.7230507 24.7755714,31.8140729 C24.6152857,31.8509084 24.4465714,31.8656996 24.2817143,31.8658418 C18.7582857,31.8684018 13.2348571,31.8702507 7.71142857,31.8605796 C7.44871429,31.8600107 7.15671429,31.804544 6.931,31.6802418 C6.62257143,31.5107129 6.48314286,31.1881529 6.53357143,30.8286151 C6.58485714,30.4633884 6.78385714,30.1925973 7.14542857,30.0661618 C7.255,30.0277618 7.37171429,30.0088462 7.52742857,29.9707307 C7.52742857,29.4772196 7.52314286,28.9827129 7.52814286,28.488064 C7.54528571,26.7909262 8.60371429,25.455744 10.263,25.0868196 C10.6637143,24.9977884 11.0898571,25.0162773 11.505,25.0003484 C11.8364286,24.9876907 12.1685714,24.9977884 12.5414286,24.9977884 C12.5477143,24.855424 12.557,24.7422151 12.557,24.628864 C12.5581429,23.479424 12.5521429,22.3298418 12.5624286,21.1802596 C12.5644286,20.9576818 12.4967143,20.8264107 12.3145714,20.6846151 C11.7444286,20.2407396 11.2027143,19.7605973 10.6445714,19.3007929 C10.559,19.2302507 10.4492857,19.1557262 10.3448571,19.1460551 C7.76057143,18.9051307 5.75414286,17.6180196 4.11942857,15.6978773 C2.298,13.5584284 1.18685714,11.0678329 0.571571429,8.34527289 C0.202,6.71000178 -0.00271428571,5.056384 3.38813179e-21,3.37887289 C0.00114285714,2.680704 0.360857143,2.31064178 1.07885714,2.30466844 C2.25728571,2.29471289 3.43571429,2.301824 4.61428571,2.30168178 L5.02385714,2.30168178 C5.02385714,1.98609067 5.04514286,1.70363733 5.02014286,1.42530844 C4.91142857,0.215281778 5.516,-0.00317155556 6.39814286,9.95555556e-05 C11.3264286,0.0181617778 16.2547143,0.00877511111 21.1828571,0.00877511111 C22.7184286,0.00877511111 24.2541429,0.008064 25.7897143,0.00905955556 C26.6618571,0.00962844444 26.997,0.353095111 26.9827143,1.22008178 C26.9771429,1.56155733 26.9818571,1.90331733 26.9818571,2.28319289 C27.1074286,2.28930844 27.2331429,2.30068622 27.359,2.30082844 C28.5135714,2.30225067 29.6682857,2.29969067 30.823,2.30239289 C31.6714286,2.30452622 32.0141429,2.64287289 31.9992857,3.49336178 C31.9325714,7.35625956 31.0905714,11.0073884 28.9465714,14.2843307 C27.6587143,16.2526862 26.0301429,17.8519751 23.7594286,18.6610773 C23.1061429,18.8938951 22.3998571,18.9782329 21.7201429,19.1403662 C21.5908571,19.1712284 21.454,19.2256996 21.3524286,19.3080462 C20.7817143,19.7709796 20.2171429,20.2417351 19.6597143,20.7204551 C19.5645714,20.8022329 19.4541429,20.9354951 19.453,21.0460018 C19.4395714,22.3139129 19.4457143,23.5819662 19.4482857,24.8500196 C19.4482857,24.8830151 19.4667143,24.9161529 19.491,24.9979307 L19.491,24.9979307 Z" id="Fill-1"></path>
            </g>
        </g>
    </g>
</svg>