<?xml version="1.0" encoding="UTF-8"?>
<svg width="27px" height="29px" viewBox="0 0 27 29" version="1.1" xmlns="http://www.w3.org/2000/svg" xmlns:xlink="http://www.w3.org/1999/xlink">
    <!-- Generator: Sketch 53.1 (72631) - https://sketchapp.com -->
    <title>User Copy</title>
    <desc>Created with Sketch.</desc>
    <g id="Page-1" stroke="none" stroke-width="1" fill="none" fill-rule="evenodd">
        <g id="24.05-zaczete-copy" transform="translate(-50.000000, -131.000000)" fill="#FFFFFF" fill-rule="nonzero">
            <g id="Group" transform="translate(36.000000, 118.000000)">
                <path d="M17.9337334,37.6499003 C18.315124,36.9380472 18.7526963,36.3335471 19.2419367,35.8662872 C20.7814893,34.3959032 23.0207619,33.4143156 24.7329337,33.0439028 C26.8782713,32.5797786 27.2690971,28.9365005 25.4616811,27.7483185 C23.8760603,26.705943 22.8172239,24.5427905 22.8172239,22.0992053 C22.8172239,18.4576928 24.8430666,15.8163885 27.4999827,15.8163885 C30.1470163,15.8163885 32.1827415,18.4784956 32.1827415,22.0992053 C32.1827415,24.5427905 31.1239051,26.705943 29.5382843,27.7483185 C27.7308683,28.9365005 28.1216941,32.5797786 30.2670317,33.0439028 C31.9792035,33.4143156 34.2184761,34.3959032 35.7580287,35.8662872 C36.2472691,36.3335471 36.6848414,36.9380472 37.066232,37.6499003 C37.4409136,38.3492315 37.6947885,39.1836115 37.6947885,39.1836115 L27.4607612,39.1836115 L17.4860407,39.1836115 C17.4860407,39.1836115 17.5590518,38.3492315 17.9337334,37.6499003 Z M14.0199703,40.6270952 C13.8835902,41.3853296 14.4085083,42 15.1701925,42 L15.4289258,42 L27.4607612,42 L39.5710396,42 L39.8297729,42 C40.6014031,42 41.1155876,41.3809508 40.9799952,40.6270952 L40.9279092,40.3375119 C40.8782803,40.0615894 40.7751496,39.614573 40.6068818,39.0508628 C40.3281089,38.1169523 39.9602465,37.1818886 39.486964,36.2985222 C38.9734816,35.3401238 38.3642411,34.4984666 37.6430994,33.8097241 C36.035466,32.2743181 34.0875053,31.2419229 32.2515474,30.6601348 C31.8376783,30.5289858 31.4295007,30.4207348 31.0321962,30.3347816 C31.0321962,30.3347816 31.032196,30.036194 31.0321962,30.0361936 C33.4398367,28.4534284 34.9418403,25.4648638 34.9418403,22.0992053 C34.9418403,17.0544536 31.8413814,13 27.4999827,13 C23.1509213,13 20.0581251,17.0324037 20.0581251,22.0992053 C20.0581251,25.4648638 21.5601285,28.4534284 23.9677689,30.0361936 C23.9677689,30.036194 23.9677689,30.3347816 23.9677689,30.3347816 C21.8079885,30.8020304 19.3268987,31.9282006 17.356866,33.8097241 C16.6357243,34.4984666 16.0264838,35.3401238 15.5130014,36.2985222 C15.0397189,37.1818886 14.6718565,38.1169523 14.3930836,39.0508628 C14.2248158,39.614573 14.1216851,40.0615894 14.0720562,40.3375119 L14.0199703,40.6270952 Z" id="User-Copy"></path>
            </g>
        </g>
    </g>
</svg>