<svg xmlns="http://www.w3.org/2000/svg" width="25" height="25" viewBox="0 0 25 25"><g><g><g opacity=".17"><path d="M13.89 16.57a3 3 0 0 1 3-3h5.111a3 3 0 0 1 3 3v5.429a3 3 0 0 1-3 3H16.89a3 3 0 0 1-3-3z"/></g><g opacity=".17"><path d="M13.89 3a3 3 0 0 1 3-3h5.111a3 3 0 0 1 3 3v5.429a3 3 0 0 1-3 3H16.89a3 3 0 0 1-3-3z"/></g><g opacity=".17"><path d="M0 3a3 3 0 0 1 3-3h5.111a3 3 0 0 1 3 3v5.429a3 3 0 0 1-3 3H3a3 3 0 0 1-3-3z"/></g><g opacity=".17"><path d="M0 16.57a3 3 0 0 1 3-3h5.111a3 3 0 0 1 3 3v5.429a3 3 0 0 1-3 3H3a3 3 0 0 1-3-3z"/></g></g></g></svg>