<svg xmlns="http://www.w3.org/2000/svg" width="29" height="33" viewBox="0 0 29 33"><g><g opacity=".17"><g opacity=".17"><path d="M11.5 4.822V.5h5.194v4.17C23.407 5.727 28.5 11.54 28.5 18.5c0 7.732-6.268 14-14 14s-14-6.268-14-14c0-6.652 4.663-12.296 11-13.678zm2.64 2.641l-.962.115C7.683 8.236 3.5 12.917 3.5 18.5c0 6.075 4.925 11 11 11s11-4.925 11-11c0-5.848-4.576-10.665-10.388-10.983zm.36-4.657l-.403-.403-.403.403V3.5h.806z"/></g></g><g><path fill="#d8d8d8" d="M14.5 18.505h9.607S22.76 9.229 14.5 8.71"/></g><g><path fill="#d8d8d8" d="M15 20a2 2 0 1 0 0-4 2 2 0 0 0 0 4z"/></g><g><path fill="#d8d8d8" d="M14 5c2.21 0 4-1.12 4-2.5S16.21 0 14 0s-4 1.12-4 2.5S11.79 5 14 5z"/></g></g></svg>